<?xml version="1.0" encoding="UTF-8" standalone="no"?>
<svg
   version="1.0"
   width="512"
   height="512"
   viewBox="0 0 384 384"
   preserveAspectRatio="xMidYMid"
   id="svg14"
   sodipodi:docname="logo.svg"
   inkscape:version="1.4.3 (0d15f75, 2025-12-25)"
   xmlns:inkscape="http://www.inkscape.org/namespaces/inkscape"
   xmlns:sodipodi="http://sodipodi.sourceforge.net/DTD/sodipodi-0.dtd"
   xmlns="http://www.w3.org/2000/svg"
   xmlns:svg="http://www.w3.org/2000/svg">
  <defs
     id="defs14" />
  <sodipodi:namedview
     id="namedview14"
     pagecolor="#ffffff"
     bordercolor="#000000"
     borderopacity="0.25"
     inkscape:showpageshadow="2"
     inkscape:pageopacity="0.0"
     inkscape:pagecheckerboard="0"
     inkscape:deskcolor="#d1d1d1"
     inkscape:document-units="pt"
     inkscape:zoom="1.0620117"
     inkscape:cx="332.38805"
     inkscape:cy="253.76368"
     inkscape:window-width="1920"
     inkscape:window-height="974"
     inkscape:window-x="1909"
     inkscape:window-y="-11"
     inkscape:window-maximized="1"
     inkscape:current-layer="svg14" />
  <circle
     style="fill:none;fill-rule:evenodd;stroke:#4caf50;stroke-width:34.1637;stroke-dasharray:none;stroke-opacity:1"
     id="path15"
     cx="192"
     cy="192"
     r="174.91815" />
  <g
     id="g16"
     style="fill:#4caf50;fill-opacity:1">
    <path
       d="m 178.48945,55.455913 c -8.29062,0.862825 -17.21898,3.301242 -23.93401,6.602485 -3.41379,1.650621 -4.20158,2.175819 -4.01401,2.701017 0.33763,0.750282 4.87683,12.56723 11.66689,30.311409 l 5.21446,13.617626 h 23.55887 23.52135 l 2.40091,-4.98938 c 1.31299,-2.70102 6.1148,-12.567229 10.65401,-21.908245 8.14056,-16.731297 8.2531,-16.956382 7.42779,-17.48158 -5.66463,-3.713898 -20.97039,-7.690394 -33.98779,-8.890846 -5.02689,-0.45017 -17.93175,-0.412656 -22.50847,0.03751 z"
       id="path2"
       style="fill:#4caf50;stroke:none;stroke-width:0.0375141;fill-opacity:1" />
    <path
       d="m 238.36198,76.538848 c -11.21672,21.908246 -17.14395,33.687682 -17.03141,33.987792 0.075,0.18757 4.5017,4.2391 9.86622,9.0409 5.36452,4.80181 11.02915,9.86622 12.64226,11.29175 l 2.85107,2.58848 15.34327,-9.60362 c 26.07232,-16.35615 23.93401,-14.93062 23.82147,-16.16858 -0.075,-0.56271 -0.71277,-2.13831 -1.42554,-3.48882 -6.07728,-11.51683 -30.23638,-32.787336 -40.36519,-35.563381 l -1.42554,-0.375141 z"
       id="path3"
       style="fill:#4caf50;stroke:none;stroke-width:0.0375141;fill-opacity:1" />
    <path
       d="m 136.81126,70.161448 c -12.60474,6.452429 -31.81197,24.421692 -36.913893,34.550502 -1.575593,3.11367 -1.613107,3.7139 -0.262599,4.65175 0.825312,0.60023 11.366782,7.20271 35.225762,22.13333 l 3.07615,1.91322 9.49108,-8.5157 c 5.25197,-4.68927 10.20384,-9.07842 11.02915,-9.79119 0.78779,-0.71276 2.28836,-2.02576 3.26373,-2.9261 l 1.80067,-1.68813 -8.14056,-15.981018 C 142.21329,68.585855 142.21329,68.548341 141.01284,68.548341 c -0.56271,0 -2.43842,0.712768 -4.20158,1.613107 z"
       id="path4"
       style="fill:#4caf50;stroke:none;stroke-width:0.0375141;fill-opacity:1" />
    <path
       d="m 155.56832,128.90856 c -6.26486,6.3774 -11.44181,11.77943 -11.51683,11.967 -0.0375,0.18757 1.91322,4.5017 4.38915,9.60362 l 4.46418,9.22847 h 39.0522 39.0522 l 4.50169,-9.26599 4.5017,-9.26598 L 227.93306,129.2837 215.816,117.35421 h -24.42169 l -24.4217,-0.0375 z"
       id="path5"
       style="fill:#4caf50;stroke:none;stroke-width:0.0375141;fill-opacity:1" />
    <path
       d="m 92.131944,119.26743 c -6.414914,8.55322 -15.830959,41.90327 -17.969263,63.32384 -0.412656,4.35163 -0.262599,8.55321 0.412655,10.27886 l 0.375141,0.97537 h 21.870732 21.908251 l 11.21672,-15.9435 c 6.15231,-8.74079 11.25423,-16.2061 11.32926,-16.50621 0.075,-0.30012 -1.23796,-4.5017 -2.9261,-9.3035 l -3.07616,-8.70328 -20.44519,-12.52972 c -11.25424,-6.86508 -20.745312,-12.60474 -21.120453,-12.67977 -0.450169,-0.11254 -0.975367,0.2626 -1.575593,1.08791 z"
       id="path6"
       style="fill:#4caf50;stroke:none;stroke-width:0.0375141;fill-opacity:1" />
    <path
       d="m 270.0239,130.82178 c -11.40429,6.97763 -20.89536,12.97989 -21.08293,13.28 -0.15006,0.30011 -1.61311,4.35164 -3.22622,9.00339 l -2.96361,8.47819 11.29175,16.13107 11.29175,16.09356 22.20836,0.0375 h 22.20835 l 0.30012,-1.42553 c 0.48768,-2.36339 0.18757,-10.16633 -0.63774,-15.83096 -3.26373,-22.28338 -12.67978,-52.96993 -17.70667,-57.6592 l -0.90034,-0.86282 z"
       id="path7"
       style="fill:#4caf50;stroke:none;stroke-width:0.0375141;fill-opacity:1" />
    <path
       d="m 139.24968,181.05319 c -6.18983,5.92723 -11.47932,11.14169 -11.85446,11.51683 -0.56271,0.67526 -0.11255,1.20045 11.06666,12.04203 l 11.70441,11.36678 h 41.67819 41.67818 l 1.83819,-1.6131 c 1.01289,-0.86283 4.72678,-4.12656 8.2156,-7.20272 10.50395,-9.22847 11.47932,-10.09129 12.2296,-10.61649 0.41265,-0.30011 0.71277,-0.75028 0.63774,-1.01288 -0.075,-0.22509 -4.2391,-6.03978 -9.3035,-12.90486 l -9.19096,-12.41717 h -43.74147 -43.77897 z"
       id="path8"
       style="fill:#4caf50;stroke:none;stroke-width:0.0375141;fill-opacity:1" />
    <path
       d="m 113.40245,203.07398 c -0.41266,0.075 -8.85333,0.48768 -18.75706,0.90033 -12.867343,0.56272 -18.044292,0.90034 -18.269376,1.23797 -2.100791,3.41378 1.237966,23.55887 6.152315,37.02644 2.701017,7.42779 6.377401,13.95525 8.890847,15.71841 l 1.087909,0.7878 21.120445,-4.87684 c 11.59187,-2.6635 21.12045,-4.91435 21.15797,-4.95186 0.22508,-0.33763 9.5661,-25.7722 9.5661,-26.07231 0,-0.18757 -1.0504,-1.20046 -2.32588,-2.25085 -1.31299,-1.01288 -6.79005,-5.43955 -12.2296,-9.79119 l -9.8287,-7.95299 -2.9261,0.0375 c -1.57559,0.0375 -3.22621,0.11255 -3.63887,0.18758 z"
       id="path9"
       style="fill:#4caf50;stroke:none;stroke-width:0.0375141;fill-opacity:1" />
    <path
       d="m 253.78029,212.30245 c -6.45243,5.17695 -12.00452,9.67864 -12.41718,10.05378 -0.63774,0.63774 -0.52519,1.0504 4.12656,13.5426 2.62599,7.09017 4.87683,13.0174 4.98937,13.16746 0.11255,0.15005 9.67865,2.43841 21.233,5.10192 l 21.0079,4.83932 1.16294,-0.90034 c 4.95187,-3.75141 11.1417,-19.3948 14.25537,-35.93853 1.16293,-6.33988 1.53808,-15.83096 0.63774,-16.7313 -0.33763,-0.33762 -6.00226,-0.71276 -20.25763,-1.31299 -10.91661,-0.45017 -20.52022,-0.93785 -21.42056,-1.01288 l -1.61311,-0.18757 z"
       id="path10"
       style="fill:#4caf50;stroke:none;stroke-width:0.0375141;fill-opacity:1" />
    <path
       d="m 148.10301,237.24934 c -2.47593,5.10192 -4.46418,9.45356 -4.42667,9.67864 0.075,0.22509 5.77718,5.66463 12.67978,12.11706 l 12.56723,11.66689 23.82146,0.0375 h 23.82147 l 11.967,-11.96701 12.00452,-12.00452 -3.30124,-6.86508 c -1.83819,-3.78893 -3.82644,-7.99051 -4.42667,-9.41604 l -1.16293,-2.51345 h -39.50237 -39.53988 z"
       id="path11"
       style="fill:#4caf50;stroke:none;stroke-width:0.0375141;fill-opacity:1" />
    <path
       d="m 133.84765,255.59374 c -1.95074,0.48769 -11.47933,2.77605 -21.19548,5.0269 -9.67865,2.28836 -17.931752,4.23909 -18.344407,4.35163 -2.926101,0.90034 6.377397,14.03028 19.469827,27.49785 7.09017,7.27774 12.90486,12.60475 17.78169,16.28113 3.67639,2.77605 9.26599,5.88972 10.57899,5.88972 0.56271,0 1.01288,-0.60023 1.80067,-2.36339 0.56272,-1.27548 4.61424,-9.94124 8.96588,-19.24475 4.38915,-9.3035 7.95299,-17.06892 7.95299,-17.294 0,-0.22509 -4.83932,-4.98938 -10.72904,-10.65401 -8.10305,-7.80294 -10.95412,-10.27887 -11.7044,-10.3539 -0.56271,-0.0375 -2.62599,0.33763 -4.57672,0.86282 z"
       id="path12"
       style="fill:#4caf50;stroke:none;stroke-width:0.0375141;fill-opacity:1" />
    <path
       d="m 241.88831,258.10719 c -1.95073,1.91322 -6.9026,6.67751 -10.99164,10.57898 l -7.42779,7.12768 7.27774,15.56836 c 4.01401,8.55322 8.14056,17.40656 9.19096,19.61989 1.8757,3.93898 1.95073,4.01401 2.96361,3.78892 7.6904,-1.8757 27.46034,-19.61988 40.70282,-36.57626 4.65175,-5.96475 8.02802,-11.96701 7.1652,-12.7548 -0.18757,-0.11255 -6.18983,-1.61311 -13.43006,-3.33876 -7.20271,-1.68814 -16.99389,-3.9765 -21.75819,-5.10192 -4.72677,-1.08791 -8.96587,-2.10079 -9.37853,-2.17582 -0.56271,-0.15006 -1.65062,0.71277 -4.31412,3.26373 z"
       id="path13"
       style="fill:#4caf50;stroke:none;stroke-width:0.0375141;fill-opacity:1" />
    <path
       d="m 166.18482,282.26628 c -0.63774,1.61311 -4.12656,10.01627 -7.76543,18.68203 -3.63887,8.66577 -6.94011,16.54373 -7.31525,17.48158 l -0.71277,1.76317 3.63887,1.68813 c 5.81469,2.70102 10.80407,4.16407 19.01966,5.58961 4.35164,0.75028 6.15232,0.82531 16.88135,0.86282 12.94238,0 17.33153,-0.41265 28.13559,-2.6635 7.65289,-1.61311 17.7817,-5.28949 17.55661,-6.3774 -0.0375,-0.18757 -3.93898,-9.19096 -8.66576,-20.03254 l -8.59073,-19.69491 -25.5096,-0.11255 -25.50961,-0.075 z"
       id="path14"
       style="fill:#4caf50;stroke:none;stroke-width:0.0375141;fill-opacity:1" />
  </g>
</svg>
